<?xml version="1.0" encoding="UTF-8" standalone="no"?>
<!-- Created with Inkscape (http://www.inkscape.org/) -->

<svg
   xmlns:dc="http://purl.org/dc/elements/1.1/"
   xmlns:cc="http://creativecommons.org/ns#"
   xmlns:rdf="http://www.w3.org/1999/02/22-rdf-syntax-ns#"
   xmlns:svg="http://www.w3.org/2000/svg"
   xmlns="http://www.w3.org/2000/svg"
   xmlns:sodipodi="http://sodipodi.sourceforge.net/DTD/sodipodi-0.dtd"
   xmlns:inkscape="http://www.inkscape.org/namespaces/inkscape"
   width="210mm"
   height="297mm"
   viewBox="0 0 744.09448819 1052.3622047"
   id="svg2"
   version="1.1"
   inkscape:version="0.91 r13725"
   sodipodi:docname="host-controller.svg">
  <defs
     id="defs4" />
  <sodipodi:namedview
     id="base"
     pagecolor="#ffffff"
     bordercolor="#666666"
     borderopacity="1.0"
     inkscape:pageopacity="0.0"
     inkscape:pageshadow="2"
     inkscape:zoom="0.98994949"
     inkscape:cx="319.24762"
     inkscape:cy="688.31812"
     inkscape:document-units="px"
     inkscape:current-layer="layer1"
     showgrid="false"
     inkscape:window-width="1855"
     inkscape:window-height="1056"
     inkscape:window-x="1985"
     inkscape:window-y="24"
     inkscape:window-maximized="1" />
  <metadata
     id="metadata7">
    <rdf:RDF>
      <cc:Work
         rdf:about="">
        <dc:format>image/svg+xml</dc:format>
        <dc:type
           rdf:resource="http://purl.org/dc/dcmitype/StillImage" />
        <dc:title />
      </cc:Work>
    </rdf:RDF>
  </metadata>
  <g
     inkscape:label="Calque 1"
     inkscape:groupmode="layer"
     id="layer1">
    <rect
       style="fill:#585858;fill-opacity:1"
       id="rect4155-6-0"
       width="5.0507627"
       height="19.192898"
       x="233.75723"
       y="-89.077187"
       transform="matrix(0.00155275,0.99999879,-0.99999879,0.00155275,0,0)" />
    <rect
       style="fill:#585858;fill-opacity:1"
       id="rect4155-7-6"
       width="5.0507627"
       height="19.192898"
       x="219.61511"
       y="-89.077187"
       transform="matrix(0.00155275,0.99999879,-0.99999879,0.00155275,0,0)" />
    <rect
       style="fill:#585858;fill-opacity:1"
       id="rect4155-5-2"
       width="5.0507627"
       height="19.192898"
       x="205.47296"
       y="-89.077187"
       transform="matrix(0.00155275,0.99999879,-0.99999879,0.00155275,0,0)" />
    <rect
       style="fill:#585858;fill-opacity:1"
       id="rect4155-3-6"
       width="5.0507627"
       height="19.192898"
       x="190.32068"
       y="-89.077187"
       transform="matrix(0.00155275,0.99999879,-0.99999879,0.00155275,0,0)" />
    <rect
       style="fill:#585858;fill-opacity:1"
       id="rect4155-56-1"
       width="5.0507627"
       height="19.192898"
       x="176.17853"
       y="-89.077187"
       transform="matrix(0.00155275,0.99999879,-0.99999879,0.00155275,0,0)" />
    <rect
       style="fill:#585858;fill-opacity:1"
       id="rect4155-2-8"
       width="5.0507627"
       height="19.192898"
       x="161.02625"
       y="-89.077187"
       transform="matrix(0.00155275,0.99999879,-0.99999879,0.00155275,0,0)" />
    <rect
       style="fill:#585858;fill-opacity:1"
       id="rect4155-9-7"
       width="5.0507627"
       height="19.192898"
       x="247.89938"
       y="-89.077187"
       transform="matrix(0.00155275,0.99999879,-0.99999879,0.00155275,0,0)" />
    <rect
       style="fill:#585858;fill-opacity:1"
       id="rect4155-6-1"
       width="5.0507627"
       height="19.192898"
       x="182.33253"
       y="266.96863" />
    <rect
       style="fill:#585858;fill-opacity:1"
       id="rect4155-7-2"
       width="5.0507627"
       height="19.192898"
       x="168.19038"
       y="266.96863" />
    <rect
       style="fill:#585858;fill-opacity:1"
       id="rect4155-5-7"
       width="5.0507627"
       height="19.192898"
       x="154.04823"
       y="266.96863" />
    <rect
       style="fill:#585858;fill-opacity:1"
       id="rect4155-3-0"
       width="5.0507627"
       height="19.192898"
       x="138.89595"
       y="266.96863" />
    <rect
       style="fill:#585858;fill-opacity:1"
       id="rect4155-56-9"
       width="5.0507627"
       height="19.192898"
       x="124.75382"
       y="266.96863" />
    <rect
       style="fill:#585858;fill-opacity:1"
       id="rect4155-2-3"
       width="5.0507627"
       height="19.192898"
       x="109.60154"
       y="266.9686" />
    <rect
       style="fill:#585858;fill-opacity:1"
       id="rect4155-9-6"
       width="5.0507627"
       height="19.192898"
       x="196.47466"
       y="266.96863" />
    <rect
       style="fill:#824900;fill-opacity:1"
       id="rect4538"
       width="46.46703"
       height="2.0203052"
       x="239.70203"
       y="237.38268" />
    <rect
       style="fill:#585858;fill-opacity:1"
       id="rect4155-6-0-9"
       width="5.0507627"
       height="19.192898"
       x="236.01279"
       y="-240.59677"
       transform="matrix(0.00155275,0.99999879,-0.99999879,0.00155275,0,0)" />
    <rect
       style="fill:#824900;fill-opacity:1"
       id="rect4538-9"
       width="46.46703"
       height="2.0203052"
       x="239.88721"
       y="223.13441" />
    <rect
       style="fill:#585858;fill-opacity:1"
       id="rect4155-7-6-2"
       width="5.0507627"
       height="19.192898"
       x="221.87067"
       y="-240.59677"
       transform="matrix(0.00155275,0.99999879,-0.99999879,0.00155275,0,0)" />
    <rect
       style="fill:#824900;fill-opacity:1"
       id="rect4538-6"
       width="46.46703"
       height="2.0203052"
       x="240.24435"
       y="209.20583" />
    <rect
       style="fill:#585858;fill-opacity:1"
       id="rect4155-5-2-0"
       width="5.0507627"
       height="19.192898"
       x="207.72852"
       y="-240.59677"
       transform="matrix(0.00155275,0.99999879,-0.99999879,0.00155275,0,0)" />
    <rect
       style="fill:#585858;fill-opacity:1"
       id="rect4155-3-6-2"
       width="5.0507627"
       height="19.192898"
       x="192.57623"
       y="-240.59677"
       transform="matrix(0.00155275,0.99999879,-0.99999879,0.00155275,0,0)" />
    <rect
       style="fill:#585858;fill-opacity:1"
       id="rect4155-56-1-3"
       width="5.0507627"
       height="19.192898"
       x="178.4341"
       y="-240.59677"
       transform="matrix(0.00155275,0.99999879,-0.99999879,0.00155275,0,0)" />
    <rect
       style="fill:#585858;fill-opacity:1"
       id="rect4155-2-8-7"
       width="5.0507627"
       height="19.192898"
       x="163.28181"
       y="-240.59677"
       transform="matrix(0.00155275,0.99999879,-0.99999879,0.00155275,0,0)" />
    <rect
       style="fill:#585858;fill-opacity:1"
       id="rect4155-9-7-5"
       width="5.0507627"
       height="19.192898"
       x="250.15494"
       y="-240.59677"
       transform="matrix(0.00155275,0.99999879,-0.99999879,0.00155275,0,0)" />
    <rect
       style="fill:#cbd3da;fill-opacity:1;fill-rule:evenodd;stroke:#000000;stroke-width:1px;stroke-linecap:butt;stroke-linejoin:miter;stroke-opacity:1"
       id="rect3338"
       width="133.34012"
       height="120.20813"
       x="88.89341"
       y="147.26553" />
    <rect
       style="fill:#585858;fill-opacity:1"
       id="rect4155-6-4"
       width="5.0507627"
       height="19.192898"
       x="496.48999"
       y="297.27319" />
    <rect
       style="fill:#585858;fill-opacity:1"
       id="rect4155-7-5"
       width="5.0507627"
       height="19.192898"
       x="482.34787"
       y="297.27319" />
    <rect
       style="fill:#585858;fill-opacity:1"
       id="rect4155-5-0"
       width="5.0507627"
       height="19.192898"
       x="468.20572"
       y="297.27319" />
    <rect
       style="fill:#585858;fill-opacity:1"
       id="rect4155-3-3"
       width="5.0507627"
       height="19.192898"
       x="453.05344"
       y="297.27319" />
    <rect
       style="fill:#585858;fill-opacity:1"
       id="rect4155-56-6"
       width="5.0507627"
       height="19.192898"
       x="438.91129"
       y="297.27319" />
    <rect
       style="fill:#585858;fill-opacity:1"
       id="rect4155-2-1"
       width="5.0507627"
       height="19.192898"
       x="423.759"
       y="297.27319" />
    <rect
       style="fill:#585858;fill-opacity:1"
       id="rect4155-9-0"
       width="5.0507627"
       height="19.192898"
       x="510.63208"
       y="297.27319" />
    <rect
       style="fill:#585858;fill-opacity:1"
       id="rect4155-6-4-6"
       width="5.0507627"
       height="19.192898"
       x="539.92657"
       y="297.27319" />
    <rect
       style="fill:#585858;fill-opacity:1"
       id="rect4155-7-5-3"
       width="5.0507627"
       height="19.192898"
       x="525.78448"
       y="297.27319" />
    <rect
       style="fill:#585858;fill-opacity:1"
       id="rect4155-9-0-2"
       width="5.0507627"
       height="19.192898"
       x="554.06866"
       y="297.27319" />
    <rect
       style="fill:#585858;fill-opacity:1"
       id="rect4155-6-4-0-9-4"
       width="5.0507627"
       height="19.192898"
       x="217.73145"
       y="-602.28186"
       transform="matrix(0.00129115,0.99999917,-0.99999917,0.00129115,0,0)" />
    <rect
       style="fill:#585858;fill-opacity:1"
       id="rect4155-7-5-6-3-3"
       width="5.0507627"
       height="19.192898"
       x="203.58936"
       y="-602.28186"
       transform="matrix(0.00129115,0.99999917,-0.99999917,0.00129115,0,0)" />
    <rect
       style="fill:#585858;fill-opacity:1"
       id="rect4155-5-0-1-7-0"
       width="5.0507627"
       height="19.192898"
       x="189.44724"
       y="-602.28186"
       transform="matrix(0.00129115,0.99999917,-0.99999917,0.00129115,0,0)" />
    <rect
       style="fill:#585858;fill-opacity:1"
       id="rect4155-3-3-5-4-7"
       width="5.0507627"
       height="19.192898"
       x="174.29494"
       y="-602.28186"
       transform="matrix(0.00129115,0.99999917,-0.99999917,0.00129115,0,0)" />
    <rect
       style="fill:#585858;fill-opacity:1"
       id="rect4155-56-6-5-5-8"
       width="5.0507627"
       height="19.192898"
       x="160.15282"
       y="-602.28186"
       transform="matrix(0.00129115,0.99999917,-0.99999917,0.00129115,0,0)" />
    <rect
       style="fill:#585858;fill-opacity:1"
       id="rect4155-2-1-4-2-6"
       width="5.0507627"
       height="19.192898"
       x="145.00053"
       y="-602.28186"
       transform="matrix(0.00129115,0.99999917,-0.99999917,0.00129115,0,0)" />
    <rect
       style="fill:#585858;fill-opacity:1"
       id="rect4155-9-0-7-5-8"
       width="5.0507627"
       height="19.192898"
       x="231.87354"
       y="-602.28186"
       transform="matrix(0.00129115,0.99999917,-0.99999917,0.00129115,0,0)" />
    <rect
       style="fill:#585858;fill-opacity:1"
       id="rect4155-6-4-6-6-4-8"
       width="5.0507627"
       height="19.192898"
       x="261.16803"
       y="-602.28186"
       transform="matrix(0.00129115,0.99999917,-0.99999917,0.00129115,0,0)" />
    <rect
       style="fill:#585858;fill-opacity:1"
       id="rect4155-7-5-3-5-7-4"
       width="5.0507627"
       height="19.192898"
       x="247.02594"
       y="-602.28186"
       transform="matrix(0.00129115,0.99999917,-0.99999917,0.00129115,0,0)" />
    <rect
       style="fill:#585858;fill-opacity:1"
       id="rect4155-9-0-2-6-4-3"
       width="5.0507627"
       height="19.192898"
       x="275.31012"
       y="-602.28186"
       transform="matrix(0.00129115,0.99999917,-0.99999917,0.00129115,0,0)" />
    <rect
       style="fill:#585858;fill-opacity:1"
       id="rect4155-6-4-0"
       width="5.0507627"
       height="19.192898"
       x="496.99506"
       y="105.34418" />
    <rect
       style="fill:#585858;fill-opacity:1"
       id="rect4155-7-5-6"
       width="5.0507627"
       height="19.192898"
       x="482.85297"
       y="105.34418" />
    <rect
       style="fill:#585858;fill-opacity:1"
       id="rect4155-5-0-1"
       width="5.0507627"
       height="19.192898"
       x="468.71082"
       y="105.34418" />
    <rect
       style="fill:#585858;fill-opacity:1"
       id="rect4155-3-3-5"
       width="5.0507627"
       height="19.192898"
       x="453.55853"
       y="105.34418" />
    <rect
       style="fill:#585858;fill-opacity:1"
       id="rect4155-56-6-5"
       width="5.0507627"
       height="19.192898"
       x="439.41638"
       y="105.34418" />
    <rect
       style="fill:#585858;fill-opacity:1"
       id="rect4155-2-1-4"
       width="5.0507627"
       height="19.192898"
       x="424.2641"
       y="105.34418" />
    <rect
       style="fill:#585858;fill-opacity:1"
       id="rect4155-9-0-7"
       width="5.0507627"
       height="19.192898"
       x="511.13715"
       y="105.34418" />
    <rect
       style="fill:#585858;fill-opacity:1"
       id="rect4155-6-4-6-6"
       width="5.0507627"
       height="19.192898"
       x="540.43164"
       y="105.34418" />
    <rect
       style="fill:#585858;fill-opacity:1"
       id="rect4155-7-5-3-5"
       width="5.0507627"
       height="19.192898"
       x="526.28955"
       y="105.34418" />
    <rect
       style="fill:#585858;fill-opacity:1"
       id="rect4155-9-0-2-6"
       width="5.0507627"
       height="19.192898"
       x="554.57373"
       y="105.34418" />
    <rect
       style="fill:#585858;fill-opacity:1"
       id="rect4155-6-4-0-9"
       width="5.0507627"
       height="19.192898"
       x="216.46173"
       y="-401.26297"
       transform="matrix(0.00129115,0.99999917,-0.99999917,0.00129115,0,0)" />
    <rect
       style="fill:#585858;fill-opacity:1"
       id="rect4155-7-5-6-3"
       width="5.0507627"
       height="19.192898"
       x="202.31964"
       y="-401.26297"
       transform="matrix(0.00129115,0.99999917,-0.99999917,0.00129115,0,0)" />
    <rect
       style="fill:#585858;fill-opacity:1"
       id="rect4155-5-0-1-7"
       width="5.0507627"
       height="19.192898"
       x="188.17751"
       y="-401.26297"
       transform="matrix(0.00129115,0.99999917,-0.99999917,0.00129115,0,0)" />
    <rect
       style="fill:#585858;fill-opacity:1"
       id="rect4155-3-3-5-4"
       width="5.0507627"
       height="19.192898"
       x="173.02524"
       y="-401.26297"
       transform="matrix(0.00129115,0.99999917,-0.99999917,0.00129115,0,0)" />
    <rect
       style="fill:#585858;fill-opacity:1"
       id="rect4155-56-6-5-5"
       width="5.0507627"
       height="19.192898"
       x="158.88309"
       y="-401.26297"
       transform="matrix(0.00129115,0.99999917,-0.99999917,0.00129115,0,0)" />
    <rect
       style="fill:#585858;fill-opacity:1"
       id="rect4155-2-1-4-2"
       width="5.0507627"
       height="19.192898"
       x="143.7308"
       y="-401.26297"
       transform="matrix(0.00129115,0.99999917,-0.99999917,0.00129115,0,0)" />
    <rect
       style="fill:#585858;fill-opacity:1"
       id="rect4155-9-0-7-5"
       width="5.0507627"
       height="19.192898"
       x="230.60382"
       y="-401.26297"
       transform="matrix(0.00129115,0.99999917,-0.99999917,0.00129115,0,0)" />
    <rect
       style="fill:#585858;fill-opacity:1"
       id="rect4155-6-4-6-6-4"
       width="5.0507627"
       height="19.192898"
       x="259.89832"
       y="-401.26297"
       transform="matrix(0.00129115,0.99999917,-0.99999917,0.00129115,0,0)" />
    <rect
       style="fill:#824900;fill-opacity:1"
       id="rect4538-1-2"
       width="69.639259"
       height="2.0203052"
       x="313.03659"
       y="246.34764" />
    <rect
       style="fill:#585858;fill-opacity:1"
       id="rect4155-7-5-3-5-7"
       width="5.0507627"
       height="19.192898"
       x="245.75623"
       y="-401.26297"
       transform="matrix(0.00129115,0.99999917,-0.99999917,0.00129115,0,0)" />
    <rect
       style="fill:#585858;fill-opacity:1"
       id="rect4155-9-0-2-6-4"
       width="5.0507627"
       height="19.192898"
       x="274.04041"
       y="-401.26297"
       transform="matrix(0.00129115,0.99999917,-0.99999917,0.00129115,0,0)" />
    <rect
       style="fill:#cbd3da;fill-opacity:1;fill-rule:evenodd;stroke:#000000;stroke-width:1.40460992px;stroke-linecap:butt;stroke-linejoin:miter;stroke-opacity:1"
       id="rect3338-3"
       width="182.43298"
       height="173.3416"
       x="401.23288"
       y="124.73941" />
    <rect
       style="fill:#585858;fill-opacity:1"
       id="rect4155-6"
       width="5.0507627"
       height="19.192898"
       x="182.33255"
       y="127.56755" />
    <rect
       style="fill:#585858;fill-opacity:1"
       id="rect4155-7"
       width="5.0507627"
       height="19.192898"
       x="168.19041"
       y="127.56755" />
    <rect
       style="fill:#585858;fill-opacity:1"
       id="rect4155-5"
       width="5.0507627"
       height="19.192898"
       x="154.04826"
       y="127.56755" />
    <rect
       style="fill:#585858;fill-opacity:1"
       id="rect4155-3"
       width="5.0507627"
       height="19.192898"
       x="138.89598"
       y="127.56755" />
    <rect
       style="fill:#585858;fill-opacity:1"
       id="rect4155-56"
       width="5.0507627"
       height="19.192898"
       x="124.75384"
       y="127.56755" />
    <rect
       style="fill:#585858;fill-opacity:1"
       id="rect4155-2"
       width="5.0507627"
       height="19.192898"
       x="109.60155"
       y="127.56754" />
    <rect
       style="fill:#585858;fill-opacity:1"
       id="rect4155-9"
       width="5.0507627"
       height="19.192898"
       x="196.47469"
       y="127.56755" />
    <rect
       style="fill:#824900;fill-opacity:1"
       id="rect4538-1"
       width="69.54998"
       height="2.0203052"
       x="312.85144"
       y="260.59592" />
    <rect
       style="fill:#824900;fill-opacity:1"
       id="rect4538-4"
       width="37.098698"
       height="1.6054845"
       x="370.79684"
       y="-8.215374"
       transform="matrix(0.7553619,0.65530786,-0.72055215,0.69340074,0,0)" />
    <rect
       style="fill:#824900;fill-opacity:1"
       id="rect4538-1-8"
       width="69.28212"
       height="2.0203052"
       x="313.39377"
       y="232.41905" />
    <rect
       style="fill:#824900;fill-opacity:1"
       id="rect4538-4-0"
       width="37.098698"
       height="1.6054845"
       x="360.6174"
       y="-19.143559"
       transform="matrix(0.7553619,0.65530786,-0.72055215,0.69340074,0,0)" />
    <rect
       style="fill:#824900;fill-opacity:1"
       id="rect4538-4-9"
       width="37.098698"
       height="1.6054845"
       x="350.789"
       y="-29.942427"
       transform="matrix(0.7553619,0.65530786,-0.72055215,0.69340074,0,0)" />
    <flowRoot
       xml:space="preserve"
       id="flowRoot4592"
       style="font-style:normal;font-weight:normal;font-size:40px;line-height:125%;font-family:sans-serif;letter-spacing:0px;word-spacing:0px;fill:#000000;fill-opacity:1;stroke:none;stroke-width:1px;stroke-linecap:butt;stroke-linejoin:miter;stroke-opacity:1"><flowRegion
         id="flowRegion4594"><rect
           id="rect4596"
           width="114.14724"
           height="51.51778"
           x="116.16754"
           y="237.1691" /></flowRegion><flowPara
         id="flowPara4598">Contro</flowPara></flowRoot>    <flowRoot
       xml:space="preserve"
       id="flowRoot4600"
       style="fill:black;stroke:none;stroke-opacity:1;stroke-width:1px;stroke-linejoin:miter;stroke-linecap:butt;fill-opacity:1;font-family:sans-serif;font-style:normal;font-weight:normal;font-size:30px;line-height:125%;letter-spacing:0px;word-spacing:0px;"><flowRegion
         id="flowRegion4602"><rect
           id="rect4604"
           width="89.90358"
           height="52.527931"
           x="118.18785"
           y="240.19955"
           style="font-size:30px;" /></flowRegion><flowPara
         id="flowPara4606" /></flowRoot>    <text
       xml:space="preserve"
       style="font-style:normal;font-weight:normal;font-size:22.5px;line-height:125%;font-family:sans-serif;letter-spacing:0px;word-spacing:0px;fill:#000000;fill-opacity:1;stroke:none;stroke-width:1px;stroke-linecap:butt;stroke-linejoin:miter;stroke-opacity:1;"
       x="129.29953"
       y="257.37216"
       id="text4608"
       sodipodi:linespacing="125%"><tspan
         sodipodi:role="line"
         id="tspan4610"
         x="129.29953"
         y="257.37216" /></text>
    <text
       xml:space="preserve"
       style="font-style:normal;font-weight:normal;font-size:23.75px;line-height:125%;font-family:sans-serif;letter-spacing:0px;word-spacing:0px;fill:#000000;fill-opacity:1;stroke:none;stroke-width:1px;stroke-linecap:butt;stroke-linejoin:miter;stroke-opacity:1"
       x="96.97464"
       y="215.95592"
       id="text4616"
       sodipodi:linespacing="125%"><tspan
         sodipodi:role="line"
         id="tspan4618"
         x="96.97464"
         y="215.95592">controller</tspan></text>
    <text
       xml:space="preserve"
       style="font-style:normal;font-weight:normal;font-size:40px;line-height:125%;font-family:sans-serif;letter-spacing:0px;word-spacing:0px;fill:#000000;fill-opacity:1;stroke:none;stroke-width:1px;stroke-linecap:butt;stroke-linejoin:miter;stroke-opacity:1"
       x="448.03857"
       y="214.88629"
       id="text4620"
       sodipodi:linespacing="125%"><tspan
         sodipodi:role="line"
         id="tspan4622"
         x="448.03857"
         y="214.88629">host</tspan></text>
    <rect
       style="fill:#585858;fill-opacity:1"
       id="rect4155-6-4-0-9-4-6"
       width="5.0507627"
       height="19.192898"
       x="516.74286"
       y="-606.9386"
       transform="matrix(0.00129115,0.99999917,-0.99999917,0.00129115,0,0)" />
    <rect
       style="fill:#585858;fill-opacity:1"
       id="rect4155-7-5-6-3-3-9"
       width="5.0507627"
       height="19.192898"
       x="502.60077"
       y="-606.9386"
       transform="matrix(0.00129115,0.99999917,-0.99999917,0.00129115,0,0)" />
    <rect
       style="fill:#585858;fill-opacity:1"
       id="rect4155-5-0-1-7-0-3"
       width="5.0507627"
       height="19.192898"
       x="488.45865"
       y="-606.9386"
       transform="matrix(0.00129115,0.99999917,-0.99999917,0.00129115,0,0)" />
    <rect
       style="fill:#585858;fill-opacity:1"
       id="rect4155-3-3-5-4-7-7"
       width="5.0507627"
       height="19.192898"
       x="473.30637"
       y="-606.9386"
       transform="matrix(0.00129115,0.99999917,-0.99999917,0.00129115,0,0)" />
    <rect
       style="fill:#585858;fill-opacity:1"
       id="rect4155-56-6-5-5-8-4"
       width="5.0507627"
       height="19.192898"
       x="459.16425"
       y="-606.9386"
       transform="matrix(0.00129115,0.99999917,-0.99999917,0.00129115,0,0)" />
    <rect
       style="fill:#585858;fill-opacity:1"
       id="rect4155-2-1-4-2-6-5"
       width="5.0507627"
       height="19.192898"
       x="444.01196"
       y="-606.9386"
       transform="matrix(0.00129115,0.99999917,-0.99999917,0.00129115,0,0)" />
    <rect
       style="fill:#585858;fill-opacity:1"
       id="rect4155-9-0-7-5-8-2"
       width="5.0507627"
       height="19.192898"
       x="530.88495"
       y="-606.9386"
       transform="matrix(0.00129115,0.99999917,-0.99999917,0.00129115,0,0)" />
    <rect
       style="fill:#585858;fill-opacity:1"
       id="rect4155-6-4-6-6-4-8-5"
       width="5.0507627"
       height="19.192898"
       x="560.17944"
       y="-606.9386"
       transform="matrix(0.00129115,0.99999917,-0.99999917,0.00129115,0,0)" />
    <rect
       style="fill:#585858;fill-opacity:1"
       id="rect4155-7-5-3-5-7-4-4"
       width="5.0507627"
       height="19.192898"
       x="546.03735"
       y="-606.9386"
       transform="matrix(0.00129115,0.99999917,-0.99999917,0.00129115,0,0)" />
    <rect
       style="fill:#585858;fill-opacity:1"
       id="rect4155-9-0-2-6-4-3-7"
       width="5.0507627"
       height="19.192898"
       x="574.32153"
       y="-606.9386"
       transform="matrix(0.00129115,0.99999917,-0.99999917,0.00129115,0,0)" />
    <rect
       style="fill:#585858;fill-opacity:1"
       id="rect4155-6-4-9"
       width="5.0507627"
       height="19.192898"
       x="501.53275"
       y="596.27832" />
    <rect
       style="fill:#585858;fill-opacity:1"
       id="rect4155-7-5-7"
       width="5.0507627"
       height="19.192898"
       x="487.39059"
       y="596.27832" />
    <rect
       style="fill:#585858;fill-opacity:1"
       id="rect4155-5-0-3"
       width="5.0507627"
       height="19.192898"
       x="473.24844"
       y="596.27832" />
    <rect
       style="fill:#585858;fill-opacity:1"
       id="rect4155-3-3-6"
       width="5.0507627"
       height="19.192898"
       x="458.09616"
       y="596.27832" />
    <rect
       style="fill:#585858;fill-opacity:1"
       id="rect4155-56-6-1"
       width="5.0507627"
       height="19.192898"
       x="443.95401"
       y="596.27832" />
    <rect
       style="fill:#585858;fill-opacity:1"
       id="rect4155-2-1-2"
       width="5.0507627"
       height="19.192898"
       x="428.80173"
       y="596.27832" />
    <rect
       style="fill:#585858;fill-opacity:1"
       id="rect4155-9-0-9"
       width="5.0507627"
       height="19.192898"
       x="515.67487"
       y="596.27832" />
    <rect
       style="fill:#585858;fill-opacity:1"
       id="rect4155-6-4-6-3"
       width="5.0507627"
       height="19.192898"
       x="544.96936"
       y="596.27832" />
    <rect
       style="fill:#585858;fill-opacity:1"
       id="rect4155-7-5-3-1"
       width="5.0507627"
       height="19.192898"
       x="530.82727"
       y="596.27832" />
    <rect
       style="fill:#585858;fill-opacity:1"
       id="rect4155-9-0-2-9"
       width="5.0507627"
       height="19.192898"
       x="559.11145"
       y="596.27832" />
    <rect
       style="fill:#585858;fill-opacity:1"
       id="rect4155-6-4-0-9-3"
       width="5.0507627"
       height="19.192898"
       x="515.47314"
       y="-405.91965"
       transform="matrix(0.00129115,0.99999917,-0.99999917,0.00129115,0,0)" />
    <rect
       style="fill:#585858;fill-opacity:1"
       id="rect4155-7-5-6-3-2"
       width="5.0507627"
       height="19.192898"
       x="501.33105"
       y="-405.91965"
       transform="matrix(0.00129115,0.99999917,-0.99999917,0.00129115,0,0)" />
    <rect
       style="fill:#585858;fill-opacity:1"
       id="rect4155-5-0-1-7-06"
       width="5.0507627"
       height="19.192898"
       x="487.18893"
       y="-405.91965"
       transform="matrix(0.00129115,0.99999917,-0.99999917,0.00129115,0,0)" />
    <rect
       style="fill:#585858;fill-opacity:1"
       id="rect4155-3-3-5-4-1"
       width="5.0507627"
       height="19.192898"
       x="472.03665"
       y="-405.91965"
       transform="matrix(0.00129115,0.99999917,-0.99999917,0.00129115,0,0)" />
    <rect
       style="fill:#585858;fill-opacity:1"
       id="rect4155-56-6-5-5-5"
       width="5.0507627"
       height="19.192898"
       x="457.8945"
       y="-405.91965"
       transform="matrix(0.00129115,0.99999917,-0.99999917,0.00129115,0,0)" />
    <rect
       style="fill:#585858;fill-opacity:1"
       id="rect4155-2-1-4-2-5"
       width="5.0507627"
       height="19.192898"
       x="442.74222"
       y="-405.91965"
       transform="matrix(0.00129115,0.99999917,-0.99999917,0.00129115,0,0)" />
    <rect
       style="fill:#585858;fill-opacity:1"
       id="rect4155-9-0-7-5-4"
       width="5.0507627"
       height="19.192898"
       x="529.61523"
       y="-405.91965"
       transform="matrix(0.00129115,0.99999917,-0.99999917,0.00129115,0,0)" />
    <rect
       style="fill:#585858;fill-opacity:1"
       id="rect4155-6-4-6-6-4-7"
       width="5.0507627"
       height="19.192898"
       x="558.90973"
       y="-405.91965"
       transform="matrix(0.00129115,0.99999917,-0.99999917,0.00129115,0,0)" />
    <rect
       style="fill:#585858;fill-opacity:1"
       id="rect4155-7-5-3-5-7-6"
       width="5.0507627"
       height="19.192898"
       x="544.76764"
       y="-405.91965"
       transform="matrix(0.00129115,0.99999917,-0.99999917,0.00129115,0,0)" />
    <rect
       style="fill:#585858;fill-opacity:1"
       id="rect4155-9-0-2-6-4-5"
       width="5.0507627"
       height="19.192898"
       x="573.05182"
       y="-405.91965"
       transform="matrix(0.00129115,0.99999917,-0.99999917,0.00129115,0,0)" />
    <rect
       style="fill:#585858;fill-opacity:1"
       id="rect4155-6-4-0-4"
       width="5.0507627"
       height="19.192898"
       x="502.03781"
       y="404.34933" />
    <rect
       style="fill:#585858;fill-opacity:1"
       id="rect4155-7-5-6-7"
       width="5.0507627"
       height="19.192898"
       x="487.89572"
       y="404.34933" />
    <rect
       style="fill:#585858;fill-opacity:1"
       id="rect4155-5-0-1-8"
       width="5.0507627"
       height="19.192898"
       x="473.75357"
       y="404.34933" />
    <rect
       style="fill:#585858;fill-opacity:1"
       id="rect4155-3-3-5-45"
       width="5.0507627"
       height="19.192898"
       x="458.60129"
       y="404.34933" />
    <rect
       style="fill:#585858;fill-opacity:1"
       id="rect4155-56-6-5-0"
       width="5.0507627"
       height="19.192898"
       x="444.45914"
       y="404.34933" />
    <rect
       style="fill:#585858;fill-opacity:1"
       id="rect4155-2-1-4-3"
       width="5.0507627"
       height="19.192898"
       x="429.30685"
       y="404.34933" />
    <rect
       style="fill:#585858;fill-opacity:1"
       id="rect4155-9-0-7-6"
       width="5.0507627"
       height="19.192898"
       x="516.17993"
       y="404.34933" />
    <rect
       style="fill:#585858;fill-opacity:1"
       id="rect4155-6-4-6-6-1"
       width="5.0507627"
       height="19.192898"
       x="545.47443"
       y="404.34933" />
    <rect
       style="fill:#585858;fill-opacity:1"
       id="rect4155-7-5-3-5-0"
       width="5.0507627"
       height="19.192898"
       x="531.33234"
       y="404.34933" />
    <rect
       style="fill:#585858;fill-opacity:1"
       id="rect4155-9-0-2-6-6"
       width="5.0507627"
       height="19.192898"
       x="559.61652"
       y="404.34933" />
    <rect
       style="fill:#cbd3da;fill-opacity:1;fill-rule:evenodd;stroke:#000000;stroke-width:1.40460992px;stroke-linecap:butt;stroke-linejoin:miter;stroke-opacity:1"
       id="rect3338-3-7"
       width="182.43298"
       height="173.3416"
       x="406.2756"
       y="423.74457" />
    <rect
       style="fill:#a9a9a9;fill-opacity:1"
       id="rect4735"
       width="158.59396"
       height="87.883278"
       x="417.19299"
       y="437.17932" />
    <text
       xml:space="preserve"
       style="font-style:normal;font-weight:normal;font-size:40px;line-height:125%;font-family:sans-serif;letter-spacing:0px;word-spacing:0px;fill:#000000;fill-opacity:1;stroke:none;stroke-width:1px;stroke-linecap:butt;stroke-linejoin:miter;stroke-opacity:1"
       x="451.53018"
       y="491.72757"
       id="text4620-9"
       sodipodi:linespacing="125%"><tspan
         sodipodi:role="line"
         id="tspan4622-2"
         x="451.53018"
         y="491.72757">host</tspan></text>
    <rect
       style="fill:#a9a9a9;fill-opacity:1"
       id="rect4735-0"
       width="157.5838"
       height="47.477173"
       x="417.69809"
       y="537.18439" />
    <text
       xml:space="preserve"
       style="font-style:normal;font-weight:normal;font-size:23.75px;line-height:125%;font-family:sans-serif;letter-spacing:0px;word-spacing:0px;fill:#000000;fill-opacity:1;stroke:none;stroke-width:1px;stroke-linecap:butt;stroke-linejoin:miter;stroke-opacity:1"
       x="434.61612"
       y="566.24152"
       id="text4616-6"
       sodipodi:linespacing="125%"><tspan
         sodipodi:role="line"
         id="tspan4618-8"
         x="434.61612"
         y="566.24152">controller</tspan></text>
    <rect
       style="fill:#824900;fill-opacity:1"
       id="rect4538-92"
       width="12.095733"
       height="2.0203004"
       x="525.35217"
       y="-457.44769"
       transform="matrix(0.00865703,0.99996253,-0.99999983,5.8658203e-4,0,0)" />
    <rect
       style="fill:#824900;fill-opacity:1"
       id="rect4538-92-6"
       width="12.095733"
       height="2.0203004"
       x="525.40027"
       y="-463.59695"
       transform="matrix(0.00865703,0.99996253,-0.99999983,5.8658203e-4,0,0)" />
    <rect
       style="fill:#824900;fill-opacity:1"
       id="rect4538-92-64"
       width="12.095733"
       height="2.0203004"
       x="525.35925"
       y="-469.84735"
       transform="matrix(0.00865703,0.99996253,-0.99999983,5.8658203e-4,0,0)" />
  </g>
</svg>
